#N canvas 11 130 1667 894 10;
#X text 11 1261 http://www.pd-tutorial.com/english/ch03s05.html;
#N canvas 861 401 450 300 sineWave 0;
#X obj 85 114 osc~;
#X text 129 115 Sine;
#X obj 86 183 outlet~;
#X obj 58 64 inlet~;
#X obj 129 65 inlet;
#X connect 0 0 2 0;
#X connect 3 0 0 0;
#X connect 4 0 0 1;
#X restore 846 1005 pd sineWave;
#X obj 73 596 vsl 30 30 0 127 0 0 empty empty empty 0 -9 0 10 -228856
-1 -1 0 1;
#X obj 685 1258 dac~;
#N canvas 0 22 450 300 (subpatch) 0;
#X array scope1 100 float 0;
#X coords 0 1 99 -1 250 190 1 0 0;
#X restore 9 4 graph;
#X obj 834 1205 bng 15 250 50 0 empty empty empty 0 -6 0 8 -262144
-1 -1;
#X text 891 1246 graph;
#X obj 858 1266 tabwrite~ scope1;
#N canvas 672 692 450 300 rampWave 0;
#X text 197 123 Sawtooth;
#X obj 145 215 outlet~;
#X obj 145 153 *~ 2;
#X obj 145 183 -~ 1;
#X obj 146 124 phasor~;
#X text 184 160 phasor only goes betwee 0 and 1 \, so this logic swings
it to negative;
#X obj 98 51 inlet~;
#X obj 180 56 inlet;
#X connect 2 0 3 0;
#X connect 3 0 1 0;
#X connect 4 0 2 0;
#X connect 6 0 4 0;
#X connect 7 0 4 1;
#X restore 736 1040 pd rampWave;
#N canvas 955 353 455 480 triangleWave 0;
#X msg 190 115 0;
#X obj 58 159 phasor~;
#X obj 159 157 phasor~;
#X obj 59 199 *~ 2;
#X obj 58 226 -~ 1;
#X obj 57 254 clip~ 0 1;
#X obj 159 202 *~ 2;
#X obj 158 229 -~ 1;
#X obj 157 257 clip~ 0 1;
#X obj 105 308 +~;
#X text 191 98 phase synchronization;
#X obj 112 337 *~ 2;
#X obj 111 364 -~ 1;
#X obj 66 60 inlet~;
#X obj 116 116 *~ -1;
#X obj 111 409 outlet~;
#X text 69 33 http://www.pd-tutorial.com/english/ch03s05.html;
#X obj 206 63 inlet;
#X connect 0 0 2 1;
#X connect 0 0 1 1;
#X connect 1 0 3 0;
#X connect 2 0 6 0;
#X connect 3 0 4 0;
#X connect 4 0 5 0;
#X connect 5 0 9 0;
#X connect 6 0 7 0;
#X connect 7 0 8 0;
#X connect 8 0 9 1;
#X connect 9 0 11 0;
#X connect 11 0 12 0;
#X connect 12 0 15 0;
#X connect 13 0 1 0;
#X connect 13 0 14 0;
#X connect 14 0 2 0;
#X connect 17 0 2 1;
#X connect 17 0 1 1;
#X restore 792 961 pd triangleWave;
#N canvas 225 403 455 480 squareWave 0;
#X msg 171 123 0;
#X obj 58 159 phasor~;
#X obj 159 157 phasor~;
#X obj 59 199 *~ 2;
#X obj 58 226 -~ 1;
#X obj 57 254 clip~ 0 1;
#X obj 159 202 *~ 2;
#X obj 158 229 -~ 1;
#X obj 157 257 clip~ 0 1;
#X obj 105 308 +~;
#X text 252 126 phase synchronization;
#X obj 112 337 *~ 2;
#X obj 111 364 -~ 1;
#X obj 66 60 inlet~;
#X obj 116 116 *~ -1;
#X obj 111 409 outlet~;
#X text 69 12 http://www.pd-tutorial.com/english/ch03s05.html;
#X obj 200 30 inlet;
#X msg 218 124 0.5;
#X obj 287 92 bng 15 250 50 0 empty empty empty 17 7 0 10 -262144 -1
-1;
#X obj 199 58 + 0.5;
#X obj 191 92 r initbang;
#X connect 0 0 1 1;
#X connect 1 0 3 0;
#X connect 2 0 6 0;
#X connect 3 0 4 0;
#X connect 4 0 5 0;
#X connect 5 0 9 0;
#X connect 6 0 7 0;
#X connect 7 0 8 0;
#X connect 8 0 9 1;
#X connect 9 0 11 0;
#X connect 11 0 12 0;
#X connect 12 0 15 0;
#X connect 13 0 1 0;
#X connect 13 0 14 0;
#X connect 14 0 2 0;
#X connect 17 0 20 0;
#X connect 17 0 1 1;
#X connect 18 0 2 1;
#X connect 19 0 18 0;
#X connect 19 0 0 0;
#X connect 20 0 2 1;
#X connect 21 0 0 0;
#X connect 21 0 18 0;
#X restore 900 1045 pd squareWave;
#X obj 1056 665 vsl 15 50 0 127 0 0 empty empty empty 0 -9 0 10 -228856
-1 -1 0 1;
#N canvas 14 649 1342 464 merger 0;
#X obj 313 98 inlet~, f 7;
#X obj 853 104 inlet~;
#X obj 498 107 inlet~;
#X obj 677 100 inlet~;
#X obj 484 276 +~;
#X text 28 11 Merge Waves;
#X obj 835 310 +~;
#X obj 659 289 +~;
#X obj 1093 386 outlet~;
#X obj 314 157 *~;
#X obj 851 152 *~;
#X obj 676 156 *~;
#X obj 498 154 *~;
#X obj 381 127 / 127;
#X obj 927 126 / 127;
#X obj 555 132 / 127;
#X obj 734 129 / 127;
#X obj 566 202 +;
#X obj 746 194 +;
#X obj 938 204 +;
#X floatatom 936 228 5 0 0 0 - - -, f 5;
#X floatatom 380 153 5 0 0 0 - - -, f 5;
#X floatatom 565 223 5 0 0 0 - - -, f 5;
#X floatatom 745 219 5 0 0 0 - - -, f 5;
#X floatatom 555 157 5 0 0 0 - - -, f 5;
#X floatatom 734 151 5 0 0 0 - - -, f 5;
#X floatatom 927 150 4 0 0 0 - - -, f 4;
#X obj 555 176 t b f;
#X obj 734 170 t b f;
#X obj 565 242 f;
#X obj 745 238 f;
#X obj 927 169 t b f;
#X obj 113 100 inlet~;
#X obj 179 128 / 127;
#X floatatom 178 154 5 0 0 0 - - -, f 5;
#X obj 178 174 f;
#X obj 380 172 t b f;
#X obj 393 200 +;
#X floatatom 392 221 5 0 0 0 - - -, f 5;
#X obj 392 240 f;
#X obj 116 220 *~;
#X obj 295 240 +~;
#X obj 1051 107 inlet~;
#X obj 978 332 +~;
#X obj 1050 163 *~;
#X obj 1108 136 / 127;
#X obj 1120 201 +;
#X floatatom 1119 226 5 0 0 0 - - -, f 5;
#X floatatom 1108 158 5 0 0 0 - - -, f 5;
#X obj 1108 177 t b f;
#X obj 935 252 f;
#X obj 1093 361 /~ 6, f 5;
#X obj 169 33 r sample1;
#X obj 377 32 r saw;
#X obj 556 38 r tri;
#X obj 734 33 r sine;
#X obj 925 37 r square;
#X obj 1109 29 r sample2, f 10;
#X obj 1113 104 clip 0 127;
#X floatatom 1165 132 5 0 0 0 - - -, f 5;
#X obj 1178 29 r CV6in;
#X obj 1113 73 +;
#X obj 1177 71 t b f;
#X obj 939 72 +;
#X obj 1003 70 t b f;
#X obj 1004 28 r CV5in;
#X obj 939 97 clip 0 127;
#X floatatom 997 123 5 0 0 0 - - -, f 5;
#X obj 746 71 +;
#X obj 810 69 t b f;
#X obj 746 96 clip 0 127;
#X floatatom 804 122 5 0 0 0 - - -, f 5;
#X obj 811 27 r CV4in;
#X obj 561 82 +;
#X obj 625 80 t b f;
#X obj 561 107 clip 0 127;
#X floatatom 619 133 5 0 0 0 - - -, f 5;
#X obj 626 38 r CV3in;
#X obj 383 76 +;
#X obj 447 74 t b f;
#X obj 383 101 clip 0 127;
#X floatatom 441 127 5 0 0 0 - - -, f 5;
#X obj 448 32 r CV2in;
#X obj 181 78 +;
#X obj 245 76 t b f;
#X obj 181 103 clip 0 127;
#X floatatom 239 129 5 0 0 0 - - -, f 5;
#X obj 246 34 r CV1in;
#X obj 208 174 s sample1WaveLevel;
#X obj 428 172 s sawWaveLevel;
#X obj 777 170 s sineWaveLevel;
#X obj 970 168 s squareWaveLevel;
#X obj 1156 179 s sample2WaveLevel;
#X obj 600 174 s triWaveLevel;
#X connect 0 0 9 0;
#X connect 1 0 10 0;
#X connect 2 0 12 0;
#X connect 3 0 11 0;
#X connect 4 0 7 0;
#X connect 6 0 43 0;
#X connect 7 0 6 0;
#X connect 9 0 41 1;
#X connect 10 0 6 1;
#X connect 11 0 7 1;
#X connect 12 0 4 1;
#X connect 13 0 9 1;
#X connect 13 0 21 0;
#X connect 14 0 10 1;
#X connect 14 0 26 0;
#X connect 15 0 12 1;
#X connect 15 0 24 0;
#X connect 16 0 11 1;
#X connect 16 0 25 0;
#X connect 17 0 22 0;
#X connect 18 0 23 0;
#X connect 19 0 20 0;
#X connect 20 0 50 0;
#X connect 21 0 36 0;
#X connect 21 0 89 0;
#X connect 22 0 29 0;
#X connect 23 0 30 0;
#X connect 24 0 27 0;
#X connect 24 0 93 0;
#X connect 25 0 28 0;
#X connect 25 0 90 0;
#X connect 26 0 31 0;
#X connect 26 0 91 0;
#X connect 27 0 39 0;
#X connect 27 1 17 1;
#X connect 28 0 29 0;
#X connect 28 1 18 1;
#X connect 29 0 18 0;
#X connect 30 0 19 0;
#X connect 31 0 30 0;
#X connect 31 1 19 1;
#X connect 32 0 40 0;
#X connect 33 0 34 0;
#X connect 33 0 40 1;
#X connect 34 0 35 0;
#X connect 34 0 88 0;
#X connect 35 0 37 0;
#X connect 36 0 35 0;
#X connect 36 1 37 1;
#X connect 37 0 38 0;
#X connect 38 0 39 0;
#X connect 39 0 17 0;
#X connect 40 0 41 0;
#X connect 41 0 4 0;
#X connect 42 0 44 0;
#X connect 43 0 51 0;
#X connect 44 0 43 1;
#X connect 45 0 44 1;
#X connect 45 0 48 0;
#X connect 46 0 47 0;
#X connect 47 0 51 1;
#X connect 48 0 49 0;
#X connect 48 0 92 0;
#X connect 49 0 50 0;
#X connect 49 1 46 1;
#X connect 50 0 46 0;
#X connect 51 0 8 0;
#X connect 52 0 83 0;
#X connect 53 0 78 0;
#X connect 54 0 73 0;
#X connect 55 0 68 0;
#X connect 56 0 63 0;
#X connect 57 0 61 0;
#X connect 58 0 45 0;
#X connect 58 0 59 0;
#X connect 60 0 62 0;
#X connect 61 0 58 0;
#X connect 62 0 61 0;
#X connect 62 1 61 1;
#X connect 63 0 66 0;
#X connect 64 0 63 0;
#X connect 64 1 63 1;
#X connect 65 0 64 0;
#X connect 66 0 14 0;
#X connect 66 0 67 0;
#X connect 68 0 70 0;
#X connect 69 0 68 0;
#X connect 69 1 68 1;
#X connect 70 0 71 0;
#X connect 70 0 16 0;
#X connect 72 0 69 0;
#X connect 73 0 75 0;
#X connect 74 0 73 0;
#X connect 74 1 73 1;
#X connect 75 0 76 0;
#X connect 75 0 15 0;
#X connect 77 0 74 0;
#X connect 78 0 80 0;
#X connect 79 0 78 0;
#X connect 79 1 78 1;
#X connect 80 0 81 0;
#X connect 80 0 13 0;
#X connect 82 0 79 0;
#X connect 83 0 85 0;
#X connect 84 0 83 0;
#X connect 84 1 83 1;
#X connect 85 0 86 0;
#X connect 85 0 33 0;
#X connect 87 0 84 0;
#X restore 682 1070 pd merger;
#X obj 943 666 vsl 15 50 0 127 0 0 empty empty empty 0 -9 0 10 -228856
-1 -1 0 1;
#X obj 830 663 vsl 15 50 0 127 0 0 empty empty empty 0 -9 0 10 -228856
-1 -1 0 1;
#X obj 719 662 vsl 15 50 0 127 0 0 empty empty empty 0 -9 0 10 -228856
-1 -1 0 1;
#X text 467 683 Wave Levels ->;
#X text 72 553 pitch;
#X obj 846 984 r~ pitch;
#X obj 736 1020 r~ pitch;
#X obj 792 942 r~ pitch;
#X obj 900 1025 r~ pitch;
#X obj 767 599 hsl 256 20 0 127 0 0 empty empty empty -2 -8 0 10 -228856
-1 -1 0 1;
#X obj 718 1095 r FoldDryWet;
#X obj 753 1116 r FoldAmmt;
#X text 693 676 saw;
#X text 803 673 tri;
#X text 909 676 sine;
#X text 1008 675 square;
#N canvas 64 227 674 562 wavefold2 0;
#X obj 54 79 inlet~;
#X obj 52 350 *~;
#X obj 52 372 cos~;
#X obj 72 476 outlet~;
#X obj 320 304 line~;
#X obj 320 258 + 0.5;
#X obj 320 282 pack 0 50;
#X obj 320 231 / 8;
#X obj 323 143 inlet;
#X text 236 162 Expects 0-127 input;
#X obj 125 76 inlet;
#X obj 124 267 abs;
#X obj 124 240 - 127;
#X obj 96 349 *~;
#X floatatom 162 291 5 0 0 0 - - -, f 5;
#X obj 121 290 / 127;
#X obj 79 227 / 127;
#X obj 79 252 sig~;
#X obj 120 314 sig~;
#X msg 142 170 0;
#X obj 53 433 *~;
#X obj 142 139 r initbang;
#X connect 0 0 1 0;
#X connect 0 0 13 0;
#X connect 1 0 2 0;
#X connect 2 0 20 0;
#X connect 4 0 1 1;
#X connect 5 0 6 0;
#X connect 6 0 4 0;
#X connect 7 0 5 0;
#X connect 8 0 7 0;
#X connect 10 0 12 0;
#X connect 10 0 16 0;
#X connect 11 0 15 0;
#X connect 12 0 11 0;
#X connect 13 0 3 0;
#X connect 15 0 14 0;
#X connect 15 0 18 0;
#X connect 16 0 17 0;
#X connect 17 0 20 1;
#X connect 18 0 13 1;
#X connect 19 0 16 0;
#X connect 19 0 12 0;
#X connect 20 0 3 0;
#X connect 21 0 19 0;
#X restore 684 1137 pd wavefold2;
#N canvas 613 304 904 701 waveTable1 0;
#X obj 31 50 inlet~;
#X obj 108 50 inlet;
#X obj 31 94 tabwrite~ wavetable1;
#X obj 174 50 inlet~;
#X obj 173 147 tabosc4~ wavetable1;
#X obj 173 174 outlet~;
#X obj 285 52 inlet;
#X obj 284 85 / 127;
#X obj 284 107 / 2;
#X connect 0 0 2 0;
#X connect 1 0 2 0;
#X connect 3 0 4 0;
#X connect 4 0 5 0;
#X connect 6 0 7 0;
#X connect 7 0 8 0;
#X connect 8 0 4 1;
#X restore 622 1017 pd waveTable1;
#X obj 117 966 adc~;
#X obj 274 593 bng 15 250 50 0 empty empty empty 17 7 0 10 -228856
-1 -1;
#X obj 672 994 r~ pitch;
#X obj 608 664 vsl 15 50 0 127 0 0 empty empty empty 0 -9 0 10 -228856
-1 -1 4900 1;
#X obj 609 589 vsl 30 30 0 127 0 0 empty empty empty 0 -9 0 10 -228856
-1 -1 0 1;
#X obj 1152 590 vsl 30 30 0 127 0 0 empty empty empty 0 -9 0 10 -228856
-1 -1 0 1;
#X obj 1153 663 vsl 15 50 0 127 0 0 empty empty empty 0 -9 0 10 -228856
-1 -1 0 1;
#X obj 184 596 vsl 30 30 0 127 0 0 empty empty empty 0 -9 0 10 -228856
-1 -1 0 1;
#X obj 187 737 vsl 30 30 0 127 0 0 empty empty empty 0 -9 0 10 -228856
-1 -1 0 1;
#X obj 131 594 vsl 30 30 0 127 0 0 empty empty empty 0 -9 0 10 -228856
-1 -1 0 1;
#X obj 69 739 vsl 30 30 0 127 0 0 empty empty empty 0 -9 0 10 -228856
-1 -1 0 1;
#X obj 128 740 vsl 30 30 0 127 0 0 empty empty empty 0 -9 0 10 -228856
-1 -1 0 1;
#X obj 274 685 bng 15 250 50 0 empty empty empty 17 7 0 10 -228856
-1 -1;
#X obj 274 640 bng 15 250 50 0 empty empty empty 17 7 0 10 -228856
-1 -1;
#X obj 295 685 tgl 15 0 empty empty empty 17 7 0 10 -262144 -1 -1 1
1;
#X obj 118 1013 s~ left;
#X obj 138 989 s~ right;
#X obj 622 954 r~ left;
#X obj 274 613 s button1;
#X obj 647 975 r button1;
#X obj 1049 988 r~ pitch;
#X obj 998 947 r~ right;
#X obj 1023 967 r button2;
#X obj 274 659 s button2;
#X obj 275 748 s button3;
#X obj 326 683 r led;
#N canvas 147 388 904 701 waveTable2 0;
#X obj 31 50 inlet~;
#X obj 108 50 inlet;
#X obj 174 50 inlet~;
#X obj 173 174 outlet~;
#X obj 285 52 inlet;
#X obj 284 85 / 127;
#X obj 284 107 / 2;
#X obj 173 147 tabosc4~ wavetable2;
#X obj 31 94 tabwrite~ wavetable2;
#X connect 0 0 8 0;
#X connect 1 0 8 0;
#X connect 2 0 7 0;
#X connect 4 0 5 0;
#X connect 5 0 6 0;
#X connect 6 0 7 1;
#X connect 7 0 3 0;
#X restore 998 1009 pd waveTable2;
#X text 9 1249 several parts inspired by:;
#N canvas 182 537 450 300 sampleReducer 0;
#X obj 35 32 inlet~;
#X obj 36 206 outlet~;
#X obj 36 130 samphold~;
#X obj 104 101 phasor~;
#X obj 105 79 * 100;
#X obj 104 56 clip 0.1 127;
#X obj 36 167 *~;
#X obj 122 166 *~;
#X obj 242 77 clip 95 127;
#X obj 242 109 - 95;
#X obj 242 146 / 32;
#X obj 242 168 - 1;
#X obj 242 190 abs;
#X msg 152 21 127;
#X obj 152 -1 r initbang;
#X obj 241 24 - 127;
#X obj 241 46 abs;
#X obj 240 0 r reduce1;
#X connect 0 0 2 0;
#X connect 0 0 7 0;
#X connect 2 0 6 0;
#X connect 3 0 2 1;
#X connect 4 0 3 0;
#X connect 5 0 4 0;
#X connect 6 0 1 0;
#X connect 7 0 1 0;
#X connect 8 0 9 0;
#X connect 9 0 10 0;
#X connect 10 0 7 1;
#X connect 10 0 11 0;
#X connect 11 0 12 0;
#X connect 12 0 6 1;
#X connect 13 0 5 0;
#X connect 13 0 8 0;
#X connect 14 0 13 0;
#X connect 15 0 16 0;
#X connect 16 0 8 0;
#X connect 16 0 5 0;
#X connect 17 0 15 0;
#X restore 622 1041 pd sampleReducer;
#X obj 3 548 tgl 15 0 empty empty empty 17 7 0 10 -262144 -1 -1 0 1
;
#X floatatom 4 637 5 0 0 0 - - -, f 5;
#X obj 3 570 metro 400;
#N canvas 168 615 450 300 sampleReducer2 0;
#X obj 35 32 inlet~;
#X obj 36 206 outlet~;
#X obj 36 130 samphold~;
#X obj 104 101 phasor~;
#X obj 105 79 * 100;
#X obj 104 56 clip 0.1 127;
#X obj 36 167 *~;
#X obj 122 166 *~;
#X obj 242 77 clip 95 127;
#X obj 242 109 - 95;
#X obj 242 146 / 32;
#X obj 242 168 - 1;
#X obj 242 190 abs;
#X msg 152 21 127;
#X obj 152 -1 r initbang;
#X obj 250 26 - 127;
#X obj 250 48 abs;
#X obj 250 1 r reduce2;
#X connect 0 0 2 0;
#X connect 0 0 7 0;
#X connect 2 0 6 0;
#X connect 3 0 2 1;
#X connect 4 0 3 0;
#X connect 5 0 4 0;
#X connect 6 0 1 0;
#X connect 7 0 1 0;
#X connect 8 0 9 0;
#X connect 9 0 10 0;
#X connect 10 0 7 1;
#X connect 10 0 11 0;
#X connect 11 0 12 0;
#X connect 12 0 6 1;
#X connect 13 0 5 0;
#X connect 13 0 8 0;
#X connect 14 0 13 0;
#X connect 15 0 16 0;
#X connect 16 0 8 0;
#X connect 16 0 5 0;
#X connect 17 0 15 0;
#X restore 997 1033 pd sampleReducer2;
#N canvas 456 38 586 613 Terminal 0;
#X obj 55 102 terminal_tedium_adc, f 22;
#X msg 35 59 open;
#X obj 95 60 metro 10;
#X obj 54 22 r initbang;
#X obj 374 4 loadbang;
#X obj 374 31 delay 300;
#X msg 374 57 \; pd dsp 1 \;;
#X obj 289 59 s initbang;
#X text 272 89 Send bang to ADC after DSP is on;
#X obj 53 582 s cv1;
#X obj 53 530 clip 0 3400;
#X obj 52 554 expr (($f1 / 3400) * 127);
#X obj 65 447 clip 0 3400;
#X obj 64 471 expr (($f1 / 3400) * 127);
#X obj 85 374 clip 0 3400;
#X obj 84 398 expr (($f1 / 3400) * 127);
#X obj 101 301 clip 0 3400;
#X obj 100 325 expr (($f1 / 3400) * 127);
#X obj 117 226 clip 0 3400;
#X obj 116 250 expr (($f1 / 3400) * 127);
#X obj 135 149 clip 0 3400;
#X obj 134 173 expr (($f1 / 3400) * 127);
#X obj 65 499 s cv2;
#X obj 84 420 s cv3;
#X obj 101 350 s cv4;
#X obj 117 278 s cv5;
#X obj 135 201 s cv6;
#X connect 0 0 10 0;
#X connect 0 1 12 0;
#X connect 0 2 14 0;
#X connect 0 3 16 0;
#X connect 0 4 18 0;
#X connect 0 5 20 0;
#X connect 1 0 0 0;
#X connect 2 0 0 0;
#X connect 3 0 2 0;
#X connect 3 0 1 0;
#X connect 4 0 5 0;
#X connect 5 0 6 0;
#X connect 5 0 7 0;
#X connect 10 0 11 0;
#X connect 11 0 9 0;
#X connect 12 0 13 0;
#X connect 13 0 22 0;
#X connect 14 0 15 0;
#X connect 15 0 23 0;
#X connect 16 0 17 0;
#X connect 17 0 24 0;
#X connect 18 0 19 0;
#X connect 19 0 25 0;
#X connect 20 0 21 0;
#X connect 21 0 26 0;
#X restore 77 1055 pd Terminal Tedium IO;
#X obj 296 593 tedium_input 23;
#X obj 295 638 tedium_input 25;
#X obj 296 726 tedium_input 24;
#X obj 295 705 tedium_output 26;
#X obj 72 573 r cv1;
#X obj 609 567 ctlin 11;
#X obj 1152 569 ctlin 28;
#X msg 372 685 1;
#X obj 372 665 r initbang;
#X obj 131 570 r cv2;
#X obj 185 569 r cv3;
#X obj 70 714 r cv4;
#X obj 128 717 r cv5;
#X obj 187 715 r cv6;
#X text 130 552 slew;
#X obj 684 1215 *~;
#N canvas 371 568 450 300 pitch 0;
#X obj 155 32 inlet;
#X obj 154 205 s~ pitch;
#X obj 155 128 line, f 5;
#X obj 155 63 mtof;
#X obj 198 62 r slew;
#X obj 175 97 pack;
#X obj 295 174 s frequency;
#X obj 153 165 sig~;
#X obj 89 94 s pitch;
#X connect 0 0 3 0;
#X connect 0 0 8 0;
#X connect 2 0 6 0;
#X connect 2 0 7 0;
#X connect 3 0 5 0;
#X connect 4 0 5 1;
#X connect 5 0 2 0;
#X connect 7 0 1 0;
#X restore 67 636 pd pitch;
#X obj 130 637 s slew;
#X obj 857 1231 metro 50;
#X obj 4 615 + 20;
#X obj 4 593 random 60;
#N canvas 78 23 1038 523 scrubber 1;
#X obj 388 23 inlet;
#X obj 18 433 outlet;
#X obj 110 432 outlet;
#X obj 777 434 outlet;
#X obj 288 434 outlet;
#X obj 458 434 outlet;
#X obj 630 433 outlet;
#X obj 9 126 * 127;
#X floatatom 17 411 5 0 0 0 - - -, f 5;
#X obj 9 148 - 127;
#X obj 9 170 abs;
#X obj 8 82 clip 0 25;
#X obj 9 104 / 25;
#X floatatom 79 196 5 0 0 0 - - -, f 5;
#X obj 77 154 * 127;
#X obj 154 147 * 127;
#X floatatom 154 210 5 0 0 0 - - -, f 5;
#X obj 154 169 - 127;
#X obj 154 191 abs;
#X obj 154 104 - 26;
#X obj 112 219 +;
#X floatatom 112 411 5 0 0 0 - - -, f 5;
#X obj 112 241 - 127;
#X floatatom 254 198 5 0 0 0 - - -, f 5;
#X obj 252 156 * 127;
#X obj 329 149 * 127;
#X floatatom 329 212 5 0 0 0 - - -, f 5;
#X obj 329 171 - 127;
#X obj 329 193 abs;
#X obj 287 221 +;
#X floatatom 287 416 5 0 0 0 - - -, f 5;
#X obj 287 243 - 127;
#X floatatom 429 199 5 0 0 0 - - -, f 5;
#X obj 427 157 * 127;
#X obj 504 150 * 127;
#X floatatom 504 213 5 0 0 0 - - -, f 5;
#X obj 504 172 - 127;
#X obj 504 194 abs;
#X obj 462 222 +;
#X floatatom 459 413 5 0 0 0 - - -, f 5;
#X obj 462 244 - 127;
#X floatatom 596 199 5 0 0 0 - - -, f 5;
#X obj 594 157 * 127;
#X obj 671 150 * 127;
#X floatatom 671 213 5 0 0 0 - - -, f 5;
#X obj 671 172 - 127;
#X obj 671 194 abs;
#X obj 629 222 +;
#X floatatom 631 413 5 0 0 0 - - -, f 5;
#X obj 629 244 - 127;
#X obj 329 106 - 53;
#X obj 504 107 - 79;
#X obj 671 107 - 106;
#X floatatom 777 414 5 0 0 0 - - -, f 5;
#X obj 774 157 * 127;
#X obj 774 85 clip 106 127;
#X obj 775 108 - 106;
#X obj 775 131 / 21;
#X obj 594 85 clip 79 105;
#X obj 595 131 / 26;
#X obj 595 108 - 79;
#X obj 503 86 clip 79 105;
#X obj 670 86 clip 106 126;
#X obj 671 128 / 20;
#X obj 504 128 / 26;
#X obj 427 85 clip 53 78;
#X obj 428 131 / 25;
#X obj 328 85 clip 53 78;
#X obj 329 127 / 25;
#X obj 428 108 - 53;
#X obj 252 84 clip 26 52;
#X obj 253 107 - 26;
#X obj 253 130 / 26;
#X obj 153 83 clip 26 52;
#X obj 154 125 / 26;
#X obj 77 82 clip 1 25;
#X obj 78 105 - 1;
#X obj 78 128 / 24;
#X obj 36 265 ctlin 21;
#X obj 18 358 +;
#X obj 18 384 clip 0 127;
#X obj 112 362 +;
#X obj 112 388 clip 0 127;
#X obj 169 263 ctlin 16;
#X obj 288 366 +;
#X obj 288 392 clip 0 127;
#X obj 345 273 ctlin 17;
#X obj 457 364 +;
#X obj 457 390 clip 0 127;
#X obj 519 283 ctlin 18;
#X obj 628 364 +;
#X obj 628 390 clip 0 127;
#X obj 696 283 ctlin 19;
#X obj 772 367 +;
#X obj 772 393 clip 0 127;
#X obj 871 286 ctlin 27, f 9;
#X obj 8 203 f;
#X obj 112 271 f;
#X obj 286 270 f;
#X obj 462 271 f;
#X obj 627 276 f;
#X obj 775 193 f;
#X obj 36 332 t b f;
#X obj 167 330 t b f;
#X obj 345 338 t b f;
#X obj 516 352 t b f;
#X obj 694 348 t b f;
#X obj 869 353 t b f;
#X obj 346 296 - 127;
#X obj 345 316 abs;
#X obj 168 288 - 127;
#X obj 167 308 abs;
#X obj 37 288 - 127;
#X obj 36 308 abs;
#X obj 518 308 - 127;
#X obj 517 328 abs;
#X obj 693 306 - 127;
#X obj 692 326 abs;
#X obj 870 309 - 127;
#X obj 869 329 abs, f 12;
#X obj 910 43 r scrubButton;
#X obj 910 68 / 127;
#X connect 0 0 11 0;
#X connect 0 0 73 0;
#X connect 0 0 70 0;
#X connect 0 0 67 0;
#X connect 0 0 65 0;
#X connect 0 0 61 0;
#X connect 0 0 58 0;
#X connect 0 0 62 0;
#X connect 0 0 55 0;
#X connect 0 0 75 0;
#X connect 7 0 9 0;
#X connect 8 0 1 0;
#X connect 9 0 10 0;
#X connect 10 0 96 0;
#X connect 11 0 12 0;
#X connect 12 0 7 0;
#X connect 13 0 20 0;
#X connect 14 0 13 0;
#X connect 15 0 17 0;
#X connect 16 0 20 1;
#X connect 17 0 18 0;
#X connect 18 0 16 0;
#X connect 19 0 74 0;
#X connect 20 0 22 0;
#X connect 21 0 2 0;
#X connect 22 0 97 0;
#X connect 23 0 29 0;
#X connect 24 0 23 0;
#X connect 25 0 27 0;
#X connect 26 0 29 1;
#X connect 27 0 28 0;
#X connect 28 0 26 0;
#X connect 29 0 31 0;
#X connect 30 0 4 0;
#X connect 31 0 98 0;
#X connect 32 0 38 0;
#X connect 33 0 32 0;
#X connect 34 0 36 0;
#X connect 35 0 38 1;
#X connect 36 0 37 0;
#X connect 37 0 35 0;
#X connect 38 0 40 0;
#X connect 39 0 5 0;
#X connect 40 0 99 0;
#X connect 41 0 47 0;
#X connect 42 0 41 0;
#X connect 43 0 45 0;
#X connect 44 0 47 1;
#X connect 45 0 46 0;
#X connect 46 0 44 0;
#X connect 47 0 49 0;
#X connect 48 0 6 0;
#X connect 49 0 100 0;
#X connect 50 0 68 0;
#X connect 51 0 64 0;
#X connect 52 0 63 0;
#X connect 53 0 3 0;
#X connect 54 0 101 0;
#X connect 55 0 56 0;
#X connect 56 0 57 0;
#X connect 57 0 54 0;
#X connect 58 0 60 0;
#X connect 59 0 42 0;
#X connect 60 0 59 0;
#X connect 61 0 51 0;
#X connect 62 0 52 0;
#X connect 63 0 43 0;
#X connect 64 0 34 0;
#X connect 65 0 69 0;
#X connect 66 0 33 0;
#X connect 67 0 50 0;
#X connect 68 0 25 0;
#X connect 69 0 66 0;
#X connect 70 0 71 0;
#X connect 71 0 72 0;
#X connect 72 0 24 0;
#X connect 73 0 19 0;
#X connect 74 0 15 0;
#X connect 75 0 76 0;
#X connect 76 0 77 0;
#X connect 77 0 14 0;
#X connect 78 0 112 0;
#X connect 79 0 80 0;
#X connect 80 0 8 0;
#X connect 81 0 82 0;
#X connect 82 0 21 0;
#X connect 83 0 110 0;
#X connect 84 0 85 0;
#X connect 85 0 30 0;
#X connect 86 0 108 0;
#X connect 87 0 88 0;
#X connect 88 0 39 0;
#X connect 89 0 114 0;
#X connect 90 0 91 0;
#X connect 91 0 48 0;
#X connect 92 0 116 0;
#X connect 93 0 94 0;
#X connect 94 0 53 0;
#X connect 95 0 118 0;
#X connect 96 0 79 0;
#X connect 97 0 81 0;
#X connect 98 0 84 0;
#X connect 99 0 87 0;
#X connect 100 0 90 0;
#X connect 101 0 93 0;
#X connect 102 0 96 0;
#X connect 102 1 79 1;
#X connect 103 0 97 0;
#X connect 103 1 81 1;
#X connect 104 0 98 0;
#X connect 104 1 84 1;
#X connect 105 0 99 0;
#X connect 105 1 87 1;
#X connect 106 0 100 0;
#X connect 106 1 90 1;
#X connect 107 0 101 0;
#X connect 107 1 93 1;
#X connect 108 0 109 0;
#X connect 109 0 104 0;
#X connect 110 0 111 0;
#X connect 111 0 103 0;
#X connect 112 0 113 0;
#X connect 113 0 102 0;
#X connect 114 0 115 0;
#X connect 115 0 105 0;
#X connect 116 0 117 0;
#X connect 117 0 106 0;
#X connect 118 0 119 0;
#X connect 119 0 107 0;
#X connect 120 0 121 0;
#X restore 765 622 pd scrubber;
#X text 181 552 Volume;
#X obj 699 1192 r volumeLevel;
#N canvas 389 470 450 300 volume 0;
#X obj 71 19 inlet;
#X obj 71 41 / 127;
#X obj 71 63 s volumeLevel;
#X obj 161 38 s volume;
#X connect 0 0 1 0;
#X connect 0 0 3 0;
#X connect 1 0 2 0;
#X restore 183 635 pd volume;
#N canvas 168 615 450 300 sampleReducer3 0;
#X obj 35 32 inlet~;
#X obj 250 1 inlet;
#X obj 36 206 outlet~;
#X obj 36 130 samphold~;
#X obj 104 101 phasor~;
#X obj 105 79 * 100;
#X obj 104 56 clip 0.1 127;
#X obj 36 167 *~;
#X obj 122 166 *~;
#X obj 242 77 clip 95 127;
#X obj 242 109 - 95;
#X obj 242 146 / 32;
#X obj 242 168 - 1;
#X obj 242 190 abs;
#X msg 152 21 127;
#X obj 152 -1 r initbang;
#X obj 250 26 - 127;
#X obj 250 48 abs;
#X connect 0 0 3 0;
#X connect 0 0 8 0;
#X connect 1 0 16 0;
#X connect 3 0 7 0;
#X connect 4 0 3 1;
#X connect 5 0 4 0;
#X connect 6 0 5 0;
#X connect 7 0 2 0;
#X connect 8 0 2 0;
#X connect 9 0 10 0;
#X connect 10 0 11 0;
#X connect 11 0 8 1;
#X connect 11 0 12 0;
#X connect 12 0 13 0;
#X connect 13 0 7 1;
#X connect 14 0 6 0;
#X connect 14 0 9 0;
#X connect 15 0 14 0;
#X connect 16 0 17 0;
#X connect 17 0 9 0;
#X connect 17 0 6 0;
#X restore 684 1166 pd sampleReducer3;
#X obj 9 776 s sampleReducer3;
#X obj 783 1144 r sampleReducer3;
#X obj 111 826 s FoldDryWet;
#X obj 123 802 s FoldAmmt;
#X text 1130 551 sample reduce;
#X text 587 550 sample reduce;
#X text 1109 673 sample;
#X text 566 676 sample;
#X obj 187 779 s globalNoise;
#N canvas 0 22 450 300 ScrubberIn 0;
#X obj 54 37 ctlin 14;
#X obj 54 66 - 127;
#X obj 53 96 abs;
#X obj 52 126 outlet;
#X obj 169 28 r initbang;
#X msg 169 52 1;
#X connect 0 0 1 0;
#X connect 1 0 2 0;
#X connect 2 0 3 0;
#X connect 4 0 5 0;
#X connect 5 0 1 0;
#X restore 764 574 pd ScrubberIn;
#N canvas 0 22 450 278 (subpatch) 0;
#X array wavetable1 131 float 3;
#A 0 0.0234848 0.027909 0.0308737 0.0298787 0.024732 0.368422 0.389474
0.410527 0.421053 0.442106 0.463158 0.473685 0.473685 0.484211 0.494737
0.505264 0.526316 0.536843 0.557895 0.568421 0.578948 0.6 0.610527
0.631579 0.642106 0.663158 0.694737 0.736842 0.752632 0.768421 0.784211
-0.0631579 -0.0631579 -0.0684211 -0.0736842 -0.0947368 -0.110526 -0.126316
-0.136842 -0.147368 -0.163158 -0.178947 -0.189474 -0.2 -0.221052 -0.242105
-0.252631 -0.263158 -0.28421 -0.294737 -0.326315 -0.347368 -0.368421
-0.378947 -0.399999 -0.431578 -0.452631 -0.452631 -0.452631 -0.0383361
-0.0457472 -0.0513902 -0.053875 -0.0549391 -0.0557276 -0.0539788 -0.0489962
-0.0430966 -0.0389375 0.768421 0.768421 0.768421 0.768421 0.768421
0.768421 0.768421 0.768421 0.768421 0.768421 0.768421 0.768421 0.768421
0.768421 0.768421 0.768421 0.768421 0.768421 0.768421 0.757895 0.757895
0.747368 0.747368 0.747368 0.747368 0.726316 0.726316 0.71579 0.71579
0.71579 0.71579 0.71579 0.705263 0.705263 -0.936842 -0.936842 -0.936842
-0.926316 -0.915789 -0.9 -0.884211 -0.852632 -0.831579 -0.821053 -0.810526
-0.789474 -0.768421 -0.736842 -0.71579 -0.705263 -0.694737 -0.673685
-0.642106 -0.610527 -0.578948 -0.547369 -0.51579 -0.484211 -0.463159
-0.442106 -0.421053 0.11072;
#X coords 0 1 131 -1 250 190 1 0 0;
#X restore 262 4 graph;
#N canvas 0 22 450 278 (subpatch) 0;
#X array wavetable2 131 float 3;
#A 0 -0.300318 -0.205901 -0.186013 -0.233208 -0.201665 -0.196654 -0.0812268
-0.030457 -0.100415 -0.182 -0.387617 -0.222663 -0.1622 -0.572901 -0.42682
-0.226486 -0.40769 -0.0630819 0.403268 0.360441 0.485443 0.593936 0.354255
0.465592 0.534031 0.360784 0.225195 -0.0367513 0.0126875 0.201892 0.180608
0.280256 0.276482 0.128607 0.198752 0.142593 -0.0210614 -0.212225 -0.512947
-0.283015 -0.0428906 -0.24421 -0.164406 0.0522536 0.219472 0.481967
0.603902 0.460781 0.290534 0.289653 0.333748 0.211994 -0.00508677 -0.137728
-0.168317 0.00578371 0.130709 -0.0733015 -0.240634 -0.237467 -0.241315
-0.288331 -0.426411 -0.577936 -0.519825 -0.275681 -0.0149918 0.210698
0.323731 0.398836 0.55135 0.683797 0.684015 0.479916 0.255947 0.182306
0.0705689 -0.098067 -0.204276 -0.27513 -0.246756 -0.114468 -0.0553764
-0.100834 -0.182701 -0.232393 -0.188085 -0.168624 -0.232786 -0.279863
-0.248597 -0.129024 0.0243721 0.160135 0.250058 0.299278 0.33916 0.346787
0.276943 0.145319 0.0299985 -0.0602733 -0.134363 -0.159386 -0.169015
-0.175225 -0.122501 -0.0934495 -0.173315 -0.207967 -0.201783 -0.213043
-0.140286 -0.237846 -0.510887 -0.421675 -0.0631105 0.0718206 0.0399825
0.0577091 0.131903 0.307923 0.517531 0.433273 0.130024 0.12121 0.209845
0.0574891 0.0816504 0.132916 -0.142156;
#X coords 0 1 131 -1 250 190 1 0 0;
#X restore 515 4 graph;
#X obj 856 1205 r initbang;
#X obj 478 282 vsl 25 25 0 1 0 0 empty sample2WaveLevel Samp2 0 -9
0 10 -228856 -4160 -258113 19 1;
#X obj 609 721 s sample1;
#X obj 720 721 s saw;
#X obj 830 722 s tri;
#X obj 944 725 s sine;
#X obj 1056 725 s square;
#X obj 1151 722 s sample2;
#X text 57 198 Output Scope;
#X text 356 199 Sample1;
#X text 614 199 Sample2;
#X obj 267 281 vsl 25 25 0 1 0 0 empty sample1WaveLevel Samp1 0 -9
0 10 -228856 -4160 -258113 2400 1;
#X obj 306 281 vsl 25 25 0 1 0 0 empty sawWaveLevel Saw 0 -9 0 10 -228856
-4160 -258113 0 1;
#X obj 346 281 vsl 25 25 0 1 0 0 empty triWaveLevel Tri 0 -9 0 10 -228856
-4160 -258113 189 1;
#X obj 387 281 vsl 25 25 0 1 0 0 empty sineWaveLevel Sine 0 -9 0 10
-228856 -4160 -258113 0 1;
#X obj 431 282 vsl 25 25 0 1 0 0 empty squareWaveLevel Square 0 -9
0 10 -228856 -4160 -258113 0 1;
#X text 260 250 [-----------Waveform Levels-------------];
#X obj 864 541 tgl 25 0 empty empty empty 17 7 0 10 -262144 -1 -1 0
1;
#X obj 609 781 tgl 25 0 empty empty empty 17 7 0 10 -262144 -1 -1 127
1;
#X obj 723 782 tgl 25 0 empty empty empty 17 7 0 10 -262144 -1 -1 127
1;
#X obj 831 779 tgl 25 0 empty empty empty 17 7 0 10 -262144 -1 -1 127
1;
#X obj 942 778 tgl 25 0 empty empty empty 17 7 0 10 -262144 -1 -1 127
1;
#X obj 1053 778 tgl 25 0 empty empty empty 17 7 0 10 -262144 -1 -1
127 1;
#X obj 1150 780 tgl 25 0 empty empty empty 17 7 0 10 -262144 -1 -1
127 1;
#X obj 864 518 ctlin 34;
#X obj 610 758 ctlin 35;
#X obj 723 760 ctlin 36;
#X obj 831 756 ctlin 37;
#X obj 943 755 ctlin 38;
#X obj 1055 757 ctlin 39;
#X obj 1150 756 ctlin 40;
#X obj 608 866 vsl 30 30 0 127 0 0 empty empty empty 0 -9 0 10 -228856
-1 -1 0 1;
#X obj 722 866 vsl 30 30 0 127 0 0 empty empty empty 0 -9 0 10 -228856
-1 -1 0 1;
#X obj 834 865 vsl 30 30 0 127 0 0 empty empty empty 0 -9 0 10 -228856
-1 -1 228 1;
#X obj 941 863 vsl 30 30 0 127 0 0 empty empty empty 0 -9 0 10 -228856
-1 -1 0 1;
#X obj 1052 863 vsl 30 30 0 127 0 0 empty empty empty 0 -9 0 10 -228856
-1 -1 0 1;
#X obj 1151 864 vsl 30 30 0 127 0 0 empty empty empty 0 -9 0 10 -228856
-1 -1 23 1;
#X obj 723 843 ctlin 29;
#X obj 834 842 ctlin 30;
#X obj 941 839 ctlin 31;
#X obj 1052 840 ctlin 32;
#X obj 1151 839 ctlin 33;
#X text 71 512 [Terminal Tedium Interface];
#X text 749 494 [Washtenaw Wave Morpher MIDI Controller Interface]
;
#X text 497 777 Buttons->;
#X text 498 878 CV inputs->;
#X text 896 544 <-Button;
#X obj 607 904 s CV1in;
#X obj 723 903 s CV2in;
#X obj 833 902 s CV3in;
#X obj 941 902 s CV4in;
#X obj 1053 901 s CV5in;
#X obj 1151 900 s CV6in;
#X obj 479 355 vsl 25 25 1.27 127 0 0 empty CV6in 6 0 -9 0 10 -228856
-4160 -258113 0 1;
#X obj 268 354 vsl 25 25 1.27 127 0 0 empty CV1in 1 0 -9 0 10 -228856
-4160 -258113 0 1;
#X obj 307 354 vsl 25 25 1.27 127 0 0 empty CV2in 2 0 -9 0 10 -228856
-4160 -258113 0 1;
#X obj 347 354 vsl 25 25 1.27 127 0 0 empty CV3in 3 0 -9 0 10 -228856
-4160 -258113 167 1;
#X obj 388 354 vsl 25 25 1.27 127 0 0 empty CV4in 4 0 -9 0 10 -228856
-4160 -258113 0 1;
#X obj 432 355 vsl 25 25 1.27 127 0 0 empty CV5in 5 0 -9 0 10 -228856
-4160 -258113 0 1;
#X text 261 323 [-----------CV Input Levels-------------];
#X obj 116 351 vsl 25 25 1.27 127 0 0 empty globalNoise Noise 0 -9
0 10 -228856 -4160 -258113 0 1;
#X obj 37 284 vsl 25 25 1.27 127 0 0 empty pitch Pitch 0 -9 0 10 -228856
-4160 -258113 0 1;
#X obj 76 284 vsl 25 25 1.27 127 0 0 empty slew Slew 0 -9 0 10 -228856
-4160 -258113 0 1;
#X obj 116 284 vsl 25 25 1.27 127 0 0 empty volume Volume 0 -9 0 10
-228856 -4160 -258113 0 1;
#X obj 36 350 vsl 25 25 1.27 127 0 0 empty sampleReducer3 Crush 0 -9
0 10 -228856 -4160 -258113 0 1;
#X obj 74 351 vsl 25 25 1.27 127 0 0 empty FoldAmmt Fold 0 -9 0 10
-228856 -4160 -258113 0 1;
#X text 18 248 [Terminal Tedium Levels];
#X obj 609 627 s reduce1;
#X obj 1152 629 s reduce2;
#X obj 474 1097 noise~;
#X obj 519 1051 r globalNoise;
#X obj 474 1117 *~, f 8;
#X obj 519 1095 sig~;
#X obj 519 1073 / 127;
#X obj 864 572 s scrubButton;
#X obj 609 812 s sample1Button;
#X obj 723 811 s sawButton;
#X obj 831 809 s triButton;
#X obj 941 809 s sineButton;
#X obj 1053 808 s squareButton;
#X obj 1150 808 s Sample2Button;
#X obj 608 843 ctlin 41;
#X connect 1 0 12 3;
#X connect 2 0 81 0;
#X connect 5 0 7 0;
#X connect 5 0 83 0;
#X connect 8 0 12 1;
#X connect 9 0 12 2;
#X connect 10 0 12 4;
#X connect 11 0 109 0;
#X connect 12 0 29 0;
#X connect 13 0 108 0;
#X connect 14 0 107 0;
#X connect 15 0 106 0;
#X connect 18 0 1 0;
#X connect 19 0 8 0;
#X connect 20 0 9 0;
#X connect 21 0 10 0;
#X connect 22 0 86 0;
#X connect 23 0 29 1;
#X connect 24 0 29 2;
#X connect 29 0 90 0;
#X connect 30 0 59 0;
#X connect 31 0 46 0;
#X connect 31 1 47 0;
#X connect 32 0 49 0;
#X connect 33 0 30 2;
#X connect 34 0 105 0;
#X connect 35 0 170 0;
#X connect 36 0 171 0;
#X connect 37 0 110 0;
#X connect 38 0 89 0;
#X connect 39 0 99 0;
#X connect 40 0 82 0;
#X connect 41 0 91 0;
#X connect 42 0 94 0;
#X connect 42 0 93 0;
#X connect 43 0 55 0;
#X connect 44 0 54 0;
#X connect 48 0 30 0;
#X connect 50 0 30 1;
#X connect 51 0 57 2;
#X connect 52 0 57 0;
#X connect 53 0 57 1;
#X connect 56 0 45 0;
#X connect 56 0 68 0;
#X connect 57 0 63 0;
#X connect 59 0 12 0;
#X connect 60 0 62 0;
#X connect 61 0 2 0;
#X connect 62 0 85 0;
#X connect 63 0 12 5;
#X connect 65 0 49 0;
#X connect 66 0 54 0;
#X connect 67 0 55 0;
#X connect 69 0 2 0;
#X connect 70 0 35 0;
#X connect 71 0 36 0;
#X connect 72 0 68 0;
#X connect 72 0 45 0;
#X connect 73 0 72 0;
#X connect 74 0 40 0;
#X connect 75 0 38 0;
#X connect 76 0 41 0;
#X connect 77 0 42 0;
#X connect 78 0 39 0;
#X connect 80 0 7 0;
#X connect 80 0 3 0;
#X connect 80 0 3 1;
#X connect 83 0 7 0;
#X connect 84 0 61 0;
#X connect 85 0 84 0;
#X connect 86 0 34 0;
#X connect 86 1 15 0;
#X connect 86 2 14 0;
#X connect 86 3 13 0;
#X connect 86 4 11 0;
#X connect 86 5 37 0;
#X connect 88 0 80 1;
#X connect 90 0 80 0;
#X connect 92 0 90 1;
#X connect 100 0 22 0;
#X connect 103 0 83 0;
#X connect 120 0 177 0;
#X connect 121 0 178 0;
#X connect 122 0 179 0;
#X connect 123 0 180 0;
#X connect 124 0 181 0;
#X connect 125 0 182 0;
#X connect 126 0 183 0;
#X connect 127 0 120 0;
#X connect 128 0 121 0;
#X connect 129 0 122 0;
#X connect 130 0 123 0;
#X connect 131 0 124 0;
#X connect 132 0 125 0;
#X connect 133 0 126 0;
#X connect 134 0 150 0;
#X connect 135 0 151 0;
#X connect 136 0 152 0;
#X connect 137 0 153 0;
#X connect 138 0 154 0;
#X connect 139 0 155 0;
#X connect 140 0 135 0;
#X connect 141 0 136 0;
#X connect 142 0 137 0;
#X connect 143 0 138 0;
#X connect 144 0 139 0;
#X connect 172 0 174 0;
#X connect 173 0 176 0;
#X connect 174 0 29 0;
#X connect 175 0 174 1;
#X connect 176 0 175 0;
#X connect 184 0 134 0;
#X coords 0 894 1 893 800 480 0;
