#N canvas 120 119 1230 638 10;
#X text 18 620 http://www.pd-tutorial.com/english/ch03s05.html;
#N canvas 861 401 450 300 sineWave 0;
#X obj 85 114 osc~;
#X text 129 115 Sine;
#X obj 86 183 outlet~;
#X obj 58 64 inlet~;
#X obj 129 65 inlet;
#X connect 0 0 2 0;
#X connect 3 0 0 0;
#X connect 4 0 0 1;
#X restore 811 250 pd sineWave;
#X obj 73 67 vsl 30 30 0 127 0 0 empty empty empty 0 -9 0 10 -262144
-1 -1 1210 1;
#X obj 649 552 dac~;
#N canvas 0 22 450 300 (subpatch) 0;
#X array scope1 100 float 0;
#X coords 0 1 99 -1 200 140 1 0 0;
#X restore 855 359 graph;
#X obj 857 543 bng 15 250 50 0 empty empty empty 0 -6 0 8 -262144 -1
-1;
#X text 880 555 graph;
#X obj 847 575 tabwrite~ scope1;
#N canvas 826 498 450 300 rampWave 0;
#X text 197 123 Sawtooth;
#X obj 145 215 outlet~;
#X obj 145 153 *~ 2;
#X obj 145 183 -~ 1;
#X obj 146 124 phasor~;
#X text 184 160 phasor only goes betwee 0 and 1 \, so this logic swings
it to negative;
#X obj 98 51 inlet~;
#X obj 180 56 inlet;
#X connect 2 0 3 0;
#X connect 3 0 1 0;
#X connect 4 0 2 0;
#X connect 6 0 4 0;
#X connect 7 0 4 1;
#X restore 603 255 pd rampWave;
#N canvas 955 353 455 480 triangleWave 0;
#X msg 190 115 0;
#X obj 58 159 phasor~;
#X obj 159 157 phasor~;
#X obj 59 199 *~ 2;
#X obj 58 226 -~ 1;
#X obj 57 254 clip~ 0 1;
#X obj 159 202 *~ 2;
#X obj 158 229 -~ 1;
#X obj 157 257 clip~ 0 1;
#X obj 105 308 +~;
#X text 191 98 phase synchronization;
#X obj 112 337 *~ 2;
#X obj 111 364 -~ 1;
#X obj 66 60 inlet~;
#X obj 116 116 *~ -1;
#X obj 111 409 outlet~;
#X text 69 33 http://www.pd-tutorial.com/english/ch03s05.html;
#X obj 206 63 inlet;
#X connect 0 0 2 1;
#X connect 0 0 1 1;
#X connect 1 0 3 0;
#X connect 2 0 6 0;
#X connect 3 0 4 0;
#X connect 4 0 5 0;
#X connect 5 0 9 0;
#X connect 6 0 7 0;
#X connect 7 0 8 0;
#X connect 8 0 9 1;
#X connect 9 0 11 0;
#X connect 11 0 12 0;
#X connect 12 0 15 0;
#X connect 13 0 1 0;
#X connect 13 0 14 0;
#X connect 14 0 2 0;
#X connect 17 0 2 1;
#X connect 17 0 1 1;
#X restore 689 252 pd triangleWave;
#N canvas 225 403 455 480 squareWave 0;
#X msg 171 123 0;
#X obj 58 159 phasor~;
#X obj 159 157 phasor~;
#X obj 59 199 *~ 2;
#X obj 58 226 -~ 1;
#X obj 57 254 clip~ 0 1;
#X obj 159 202 *~ 2;
#X obj 158 229 -~ 1;
#X obj 157 257 clip~ 0 1;
#X obj 105 308 +~;
#X text 252 126 phase synchronization;
#X obj 112 337 *~ 2;
#X obj 111 364 -~ 1;
#X obj 66 60 inlet~;
#X obj 116 116 *~ -1;
#X obj 111 409 outlet~;
#X text 69 12 http://www.pd-tutorial.com/english/ch03s05.html;
#X obj 200 30 inlet;
#X msg 218 124 0.5;
#X obj 287 92 bng 15 250 50 0 empty empty empty 17 7 0 10 -262144 -1
-1;
#X obj 199 58 + 0.5;
#X obj 191 92 r initbang;
#X connect 0 0 1 1;
#X connect 1 0 3 0;
#X connect 2 0 6 0;
#X connect 3 0 4 0;
#X connect 4 0 5 0;
#X connect 5 0 9 0;
#X connect 6 0 7 0;
#X connect 7 0 8 0;
#X connect 8 0 9 1;
#X connect 9 0 11 0;
#X connect 11 0 12 0;
#X connect 12 0 15 0;
#X connect 13 0 1 0;
#X connect 13 0 14 0;
#X connect 14 0 2 0;
#X connect 17 0 20 0;
#X connect 17 0 1 1;
#X connect 18 0 2 1;
#X connect 19 0 18 0;
#X connect 19 0 0 0;
#X connect 20 0 2 1;
#X connect 21 0 0 0;
#X connect 21 0 18 0;
#X restore 905 249 pd squareWave;
#X obj 982 154 vsl 15 50 0 127 0 0 empty empty empty 0 -9 0 10 -262144
-1 -1 2800 1;
#N canvas 129 464 876 401 merger 0;
#X obj 143 44 inlet~, f 7;
#X obj 510 47 inlet~;
#X obj 266 44 inlet~;
#X obj 394 45 inlet~;
#X obj 252 213 +~;
#X text 157 10 Merge Waves;
#X obj 492 253 +~;
#X obj 376 234 +~;
#X obj 700 317 outlet~;
#X obj 210 46 inlet;
#X obj 324 44 inlet;
#X obj 451 46 inlet;
#X obj 144 103 *~;
#X obj 508 95 *~;
#X obj 393 101 *~;
#X obj 266 91 *~;
#X obj 583 41 inlet;
#X obj 211 73 / 127;
#X obj 584 69 / 127;
#X obj 323 69 / 127;
#X obj 451 74 / 127;
#X obj 334 139 +;
#X obj 463 139 +;
#X obj 595 147 +;
#X floatatom 593 171 5 0 0 0 - - -, f 5;
#X floatatom 210 99 5 0 0 0 - - -, f 5;
#X floatatom 333 160 5 0 0 0 - - -, f 5;
#X floatatom 462 164 5 0 0 0 - - -, f 5;
#X floatatom 323 94 5 0 0 0 - - -, f 5;
#X floatatom 451 96 5 0 0 0 - - -, f 5;
#X floatatom 584 93 4 0 0 0 - - -, f 4;
#X obj 323 113 t b f;
#X obj 451 115 t b f;
#X obj 333 179 f;
#X obj 462 183 f;
#X obj 584 112 t b f;
#X obj 14 47 inlet~;
#X obj 79 46 inlet;
#X obj 80 75 / 127;
#X floatatom 79 101 5 0 0 0 - - -, f 5;
#X obj 79 120 f;
#X obj 210 118 t b f;
#X obj 223 146 +;
#X floatatom 222 167 5 0 0 0 - - -, f 5;
#X obj 222 186 f;
#X obj 17 167 *~;
#X obj 125 186 +~;
#X obj 649 40 inlet~;
#X obj 635 275 +~;
#X obj 706 41 inlet;
#X obj 648 96 *~;
#X obj 706 69 / 127;
#X obj 718 134 +;
#X floatatom 717 159 5 0 0 0 - - -, f 5;
#X floatatom 706 91 5 0 0 0 - - -, f 5;
#X obj 706 110 t b f;
#X obj 592 195 f;
#X obj 700 294 /~ 6, f 26;
#X connect 0 0 12 0;
#X connect 1 0 13 0;
#X connect 2 0 15 0;
#X connect 3 0 14 0;
#X connect 4 0 7 0;
#X connect 6 0 48 0;
#X connect 7 0 6 0;
#X connect 9 0 17 0;
#X connect 10 0 19 0;
#X connect 11 0 20 0;
#X connect 12 0 46 1;
#X connect 13 0 6 1;
#X connect 14 0 7 1;
#X connect 15 0 4 1;
#X connect 16 0 18 0;
#X connect 17 0 12 1;
#X connect 17 0 25 0;
#X connect 18 0 13 1;
#X connect 18 0 30 0;
#X connect 19 0 15 1;
#X connect 19 0 28 0;
#X connect 20 0 14 1;
#X connect 20 0 29 0;
#X connect 21 0 26 0;
#X connect 22 0 27 0;
#X connect 23 0 24 0;
#X connect 24 0 56 0;
#X connect 25 0 41 0;
#X connect 26 0 33 0;
#X connect 27 0 34 0;
#X connect 28 0 31 0;
#X connect 29 0 32 0;
#X connect 30 0 35 0;
#X connect 31 0 44 0;
#X connect 31 1 21 1;
#X connect 32 0 33 0;
#X connect 32 1 22 1;
#X connect 33 0 22 0;
#X connect 34 0 23 0;
#X connect 35 0 34 0;
#X connect 35 1 23 1;
#X connect 36 0 45 0;
#X connect 37 0 38 0;
#X connect 38 0 39 0;
#X connect 38 0 45 1;
#X connect 39 0 40 0;
#X connect 40 0 42 0;
#X connect 41 0 40 0;
#X connect 41 1 42 1;
#X connect 42 0 43 0;
#X connect 43 0 44 0;
#X connect 44 0 21 0;
#X connect 45 0 46 0;
#X connect 46 0 4 0;
#X connect 47 0 50 0;
#X connect 48 0 57 0;
#X connect 49 0 51 0;
#X connect 50 0 48 1;
#X connect 51 0 50 1;
#X connect 51 0 54 0;
#X connect 52 0 53 0;
#X connect 53 0 57 1;
#X connect 54 0 55 0;
#X connect 55 0 56 0;
#X connect 55 1 52 1;
#X connect 56 0 52 0;
#X connect 57 0 8 0;
#X restore 724 341 pd merger;
#X obj 872 150 vsl 15 50 0 127 0 0 empty empty empty 0 -9 0 10 -262144
-1 -1 0 1;
#X obj 772 151 vsl 15 50 0 127 0 0 empty empty empty 0 -9 0 10 -262144
-1 -1 0 1;
#X obj 663 155 vsl 15 50 0 127 0 0 empty empty empty 0 -9 0 10 -262144
-1 -1 4900 1;
#X obj 663 222 vsl 20 20 0 0.5 0 0 empty empty empty 0 -9 0 10 -262144
-1 -1 0 1;
#X obj 981 217 vsl 20 20 0 0.5 0 0 empty empty empty 0 -9 0 10 -262144
-1 -1 0 1;
#X obj 772 220 vsl 20 20 0 0.5 0 0 empty empty empty 0 -9 0 10 -262144
-1 -1 0 1;
#X obj 873 218 vsl 20 20 0 0.5 0 0 empty empty empty 0 -9 0 10 -262144
-1 -1 700 1;
#X text 441 160 Wave Levels ->;
#X text 451 218 Wave phase ->;
#X obj 766 25 vsl 30 30 0 127 0 0 empty empty empty 0 -9 0 10 -262144
-1 -1 0 1;
#X obj 686 23 vsl 30 30 0 127 0 0 empty empty empty 0 -9 0 10 -262144
-1 -1 0 1;
#X text 72 24 pitch;
#X obj 812 221 r~ pitch;
#X obj 601 227 r~ pitch;
#X obj 691 227 r~ pitch;
#X obj 908 218 r~ pitch;
#X obj 696 91 hsl 256 15 0 127 0 0 empty empty empty -2 -8 0 10 -262144
-1 -1 25500 1;
#X obj 655 66 s FoldDryWet;
#X obj 699 381 r FoldDryWet;
#X obj 750 67 s FoldAmmt;
#X obj 729 400 r FoldAmmt;
#X text 637 163 saw;
#X text 745 166 tri;
#X text 838 165 sine;
#X text 937 164 square;
#N canvas 64 227 674 562 wavefold2 0;
#X obj 54 79 inlet~;
#X obj 52 350 *~;
#X obj 52 372 cos~;
#X obj 72 476 outlet~;
#X obj 320 304 line~;
#X obj 320 258 + 0.5;
#X obj 320 282 pack 0 50;
#X obj 320 231 / 8;
#X obj 323 143 inlet;
#X text 236 162 Expects 0-127 input;
#X obj 125 76 inlet;
#X obj 124 267 abs;
#X obj 124 240 - 127;
#X obj 96 349 *~;
#X floatatom 162 291 5 0 0 0 - - -, f 5;
#X obj 121 290 / 127;
#X obj 79 227 / 127;
#X obj 79 252 sig~;
#X obj 120 314 sig~;
#X msg 142 170 0;
#X obj 53 433 *~;
#X obj 142 139 r initbang;
#X connect 0 0 1 0;
#X connect 0 0 13 0;
#X connect 1 0 2 0;
#X connect 2 0 20 0;
#X connect 4 0 1 1;
#X connect 5 0 6 0;
#X connect 6 0 4 0;
#X connect 7 0 5 0;
#X connect 8 0 7 0;
#X connect 10 0 12 0;
#X connect 10 0 16 0;
#X connect 11 0 15 0;
#X connect 12 0 11 0;
#X connect 13 0 3 0;
#X connect 15 0 14 0;
#X connect 15 0 18 0;
#X connect 16 0 17 0;
#X connect 17 0 20 1;
#X connect 18 0 13 1;
#X connect 19 0 16 0;
#X connect 19 0 12 0;
#X connect 20 0 3 0;
#X connect 21 0 19 0;
#X restore 661 423 pd wavefold2;
#N canvas 119 416 904 701 waveTable1 0;
#X obj 31 50 inlet~;
#N canvas 0 22 450 278 (subpatch) 0;
#X array wavetable1 131 float 3;
#A 0 0.0268858 0.0574708 -0.0688222 -0.127221 -0.167719 -0.158745 0.0866017
0.160469 -0.161072 -0.391211 -0.288272 0.186318 0.3388 -0.224578 -0.482509
-0.114589 0.119086 -0.136358 -0.202807 0.0814859 -0.0228696 -0.290642
-0.181185 0.0245696 -0.0271182 -0.0710338 0.0172619 -0.102947 -0.144146
0.024303 -0.13595 -0.125635 0.192399 0.107201 -0.177844 -0.419138 -0.211078
0.277209 0.178932 -0.200927 -0.186989 -0.0159195 -0.285262 -0.30641
0.230183 0.270855 -0.168101 -0.471317 -0.338841 0.0548655 0.162272
-0.0229945 -0.238059 -0.302677 -0.15543 -0.00389206 0.00728283 -0.0198473
-0.0154818 -0.013459 -0.0271787 -0.0106899 0.0292883 0.101627 0.139684
0.0222359 -0.0103588 0.0916179 0.0725202 0.0136475 0.042149 0.0858956
0.0987962 0.0640253 -0.000839542 0.0337857 0.0950739 0.0826151 0.0865124
0.0356975 -0.015623 0.0558861 0.0983158 0.043269 0.04452 0.104369 0.070373
0.000300763 0.0262988 0.132785 0.154123 0.0711411 0.0726531 0.122171
0.148525 0.189779 0.199412 0.149544 0.112231 0.147479 0.188917 0.212983
0.222686 0.120441 -0.0037223 0.0464057 0.178095 0.189106 0.0883784
0.031771 0.0650561 0.105547 0.0927792 0.0567767 0.0877489 0.132757
0.100865 0.0215095 -0.00182467 0.117135 0.182992 0.0601132 -0.0174642
0.0420168 0.114902 0.137914 0.0668405 0.0184043 0.0896393 0.107616
0.0769494;
#X coords 0 1 131 -1 200 140 1 0 0;
#X restore 361 49 graph;
#X obj 108 50 inlet;
#X obj 31 94 tabwrite~ wavetable1;
#X obj 174 50 inlet~;
#X obj 173 147 tabosc4~ wavetable1;
#X obj 173 174 outlet~;
#X obj 285 52 inlet;
#X obj 284 85 / 127;
#X obj 284 107 / 2;
#X connect 0 0 3 0;
#X connect 2 0 3 0;
#X connect 4 0 5 0;
#X connect 5 0 6 0;
#X connect 7 0 8 0;
#X connect 8 0 9 0;
#X connect 9 0 5 1;
#X restore 485 304 pd waveTable1;
#X obj 223 270 adc~;
#X obj 274 64 bng 15 250 50 0 empty empty empty 17 7 0 10 -262144 -1
-1;
#X obj 536 256 r~ pitch;
#X obj 1037 212 vsl 30 30 0 127 0 0 empty empty empty 0 -9 0 10 -262144
-1 -1 0 1;
#X obj 547 213 vsl 30 30 0 127 0 0 empty empty empty 0 -9 0 10 -262144
-1 -1 0 1;
#X obj 547 154 vsl 30 30 0 127 0 0 empty empty empty 0 -9 0 10 -262144
-1 -1 0 1;
#X obj 546 82 vsl 30 30 0 127 0 0 empty empty empty 0 -9 0 10 -262144
-1 -1 2900 1;
#X obj 866 29 vsl 20 20 0 127 0 0 empty empty empty 0 -9 0 10 -262144
-1 -1 0 1;
#X obj 1037 27 vsl 30 30 0 127 0 0 empty empty empty 0 -9 0 10 -262144
-1 -1 0 1;
#X obj 1036 84 vsl 30 30 0 127 0 0 empty empty empty 0 -9 0 10 -262144
-1 -1 600 1;
#X obj 1038 156 vsl 30 30 0 127 0 0 empty empty empty 0 -9 0 10 -262144
-1 -1 2900 1;
#X obj 184 65 vsl 30 30 0 127 0 0 empty empty empty 0 -9 0 10 -262144
-1 -1 100 1;
#X obj 187 209 vsl 30 30 0 127 0 0 empty empty empty 0 -9 0 10 -262144
-1 -1 0 1;
#X obj 131 65 vsl 30 30 0 127 0 0 empty empty empty 0 -9 0 10 -262144
-1 -1 0 1;
#X obj 69 209 vsl 30 30 0 127 0 0 empty empty empty 0 -9 0 10 -262144
-1 -1 2900 1;
#X obj 129 210 vsl 30 30 0 127 0 0 empty empty empty 0 -9 0 10 -262144
-1 -1 0 1;
#X obj 274 156 bng 15 250 50 0 empty empty empty 17 7 0 10 -262144
-1 -1;
#X obj 274 111 bng 15 250 50 0 empty empty empty 17 7 0 10 -262144
-1 -1;
#X obj 295 156 tgl 15 0 empty empty empty 17 7 0 10 -262144 -1 -1 0
1;
#X obj 220 313 s~ left;
#X obj 228 293 s~ right;
#X obj 468 258 r~ left;
#X obj 274 84 s button1;
#X obj 492 281 r button1;
#X obj 1070 249 r~ pitch;
#X obj 1002 251 r~ right;
#X obj 1026 274 r button2;
#X obj 274 130 s button2;
#X obj 274 198 s button3;
#X obj 326 154 r led;
#N canvas 132 634 904 701 waveTable2 0;
#X obj 31 50 inlet~;
#N canvas 0 22 450 278 (subpatch) 0;
#X array wavetable2 131 float 3;
#A 0 0.0034314 0.122718 0.113643 -0.0775512 -0.0671586 0.11176 -0.0147162
0.158974 0.0837651 -0.17304 0.0237009 0.0701708 0.0161061 0.00151295
0.0742648 0.0927025 -0.00365633 -0.092533 -0.0356839 0.0511649 0.0417903
0.0646378 0.0184256 -0.00494916 0.0142075 -0.08126 -0.0814378 0.131805
0.111699 -0.0971129 -0.139565 0.0214412 0.0390173 -0.00448721 0.239641
-0.103995 -0.243472 0.140007 -0.112192 -0.00836274 0.17339 -0.00689149
-0.0594168 -0.0729583 -0.0634375 0.0195488 0.227186 -0.0437828 -0.0542899
0.167805 -0.0997315 -0.0634746 -0.024504 0.00604808 0.160262 0.0480719
-0.00680551 0.00407249 -0.0387242 -0.0360125 0.117382 0.202854 0.0822738
-0.0241424 -0.128658 0.0363888 0.135643 -0.0709393 0.10981 0.23596
-0.0740836 -0.0459239 0.217611 0.0694132 0.0972133 0.195569 -0.106919
-0.0207614 0.110943 -0.0665734 0.125961 0.11047 0.22442 0.233292 -0.276788
0.201019 0.0179304 -0.00368468 0.366354 -0.202455 0.171715 -0.000217567
-0.0758866 0.186282 -0.020386 0.292205 -0.118316 -0.17973 0.164944
-0.0799707 0.0672093 0.131558 -0.0688804 -0.0807098 0.0182661 -0.0701219
-0.0527796 0.125087 -0.117266 -0.131675 -0.0618808 -0.206937 -0.018249
0.0903552 0.0287741 -0.0118983 -0.084254 -0.180367 -0.158219 -0.083542
-0.163114 0.00322524 0.00977358 -0.158746 -0.0742546 -0.19735 -0.121896
0.0668441 -0.0531896 -0.0667857 -0.0862016;
#X coords 0 1 131 -1 200 140 1 0 0;
#X restore 364 48 graph;
#X obj 108 50 inlet;
#X obj 174 50 inlet~;
#X obj 173 174 outlet~;
#X obj 285 52 inlet;
#X obj 284 85 / 127;
#X obj 284 107 / 2;
#X obj 173 147 tabosc4~ wavetable2;
#X obj 31 94 tabwrite~ wavetable2;
#X connect 0 0 9 0;
#X connect 2 0 9 0;
#X connect 3 0 8 0;
#X connect 5 0 6 0;
#X connect 6 0 7 0;
#X connect 7 0 8 1;
#X connect 8 0 4 0;
#X restore 1019 297 pd waveTable2;
#X text 16 608 several parts inspired by:;
#X obj 546 19 vsl 30 30 0 127 0 0 empty empty empty 0 -9 0 10 -262144
-1 -1 0 1;
#N canvas 182 537 450 300 sampleReducer 0;
#X obj 35 32 inlet~;
#X obj 189 30 inlet;
#X obj 36 206 outlet~;
#X obj 36 130 samphold~;
#X obj 104 101 phasor~;
#X obj 105 79 * 100;
#X obj 104 56 clip 0.1 127;
#X obj 36 167 *~;
#X obj 122 166 *~;
#X obj 242 77 clip 95 127;
#X obj 242 109 - 95;
#X obj 242 146 / 32;
#X obj 242 168 - 1;
#X obj 242 190 abs;
#X msg 152 21 127;
#X obj 152 -1 r initbang;
#X connect 0 0 3 0;
#X connect 0 0 8 0;
#X connect 1 0 6 0;
#X connect 1 0 9 0;
#X connect 3 0 7 0;
#X connect 4 0 3 1;
#X connect 5 0 4 0;
#X connect 6 0 5 0;
#X connect 7 0 2 0;
#X connect 8 0 2 0;
#X connect 9 0 10 0;
#X connect 10 0 11 0;
#X connect 11 0 8 1;
#X connect 11 0 12 0;
#X connect 12 0 13 0;
#X connect 13 0 7 1;
#X connect 14 0 6 0;
#X connect 14 0 9 0;
#X connect 15 0 14 0;
#X restore 485 331 pd sampleReducer;
#X text 432 91 sample reduce ->;
#X obj 3 19 tgl 15 0 empty empty empty 17 7 0 10 -262144 -1 -1 1 1
;
#X floatatom 4 108 5 0 0 0 - - -, f 5;
#X obj 3 41 metro 400;
#N canvas 168 615 450 300 sampleReducer2 0;
#X obj 35 32 inlet~;
#X obj 189 30 inlet;
#X obj 36 206 outlet~;
#X obj 36 130 samphold~;
#X obj 104 101 phasor~;
#X obj 105 79 * 100;
#X obj 104 56 clip 0.1 127;
#X obj 36 167 *~;
#X obj 122 166 *~;
#X obj 242 77 clip 95 127;
#X obj 242 109 - 95;
#X obj 242 146 / 32;
#X obj 242 168 - 1;
#X obj 242 190 abs;
#X msg 152 21 127;
#X obj 152 -1 r initbang;
#X connect 0 0 3 0;
#X connect 0 0 8 0;
#X connect 1 0 6 0;
#X connect 1 0 9 0;
#X connect 3 0 7 0;
#X connect 4 0 3 1;
#X connect 5 0 4 0;
#X connect 6 0 5 0;
#X connect 7 0 2 0;
#X connect 8 0 2 0;
#X connect 9 0 10 0;
#X connect 10 0 11 0;
#X connect 11 0 8 1;
#X connect 11 0 12 0;
#X connect 12 0 13 0;
#X connect 13 0 7 1;
#X connect 14 0 6 0;
#X connect 14 0 9 0;
#X connect 15 0 14 0;
#X restore 1018 322 pd sampleReducer2;
#N canvas 456 38 586 613 Terminal 0;
#X obj 55 102 terminal_tedium_adc, f 22;
#X msg 35 59 open;
#X obj 95 60 metro 10;
#X obj 54 22 r initbang;
#X obj 374 4 loadbang;
#X obj 374 31 delay 300;
#X msg 374 57 \; pd dsp 1 \;;
#X obj 289 59 s initbang;
#X text 272 89 Send bang to ADC after DSP is on;
#X obj 53 582 s cv1;
#X obj 53 530 clip 0 3400;
#X obj 52 554 expr (($f1 / 3400) * 127);
#X obj 65 447 clip 0 3400;
#X obj 64 471 expr (($f1 / 3400) * 127);
#X obj 85 374 clip 0 3400;
#X obj 84 398 expr (($f1 / 3400) * 127);
#X obj 101 301 clip 0 3400;
#X obj 100 325 expr (($f1 / 3400) * 127);
#X obj 117 226 clip 0 3400;
#X obj 116 250 expr (($f1 / 3400) * 127);
#X obj 135 149 clip 0 3400;
#X obj 134 173 expr (($f1 / 3400) * 127);
#X obj 65 499 s cv2;
#X obj 84 420 s cv3;
#X obj 101 350 s cv4;
#X obj 117 278 s cv5;
#X obj 135 201 s cv6;
#X connect 0 0 10 0;
#X connect 0 1 12 0;
#X connect 0 2 14 0;
#X connect 0 3 16 0;
#X connect 0 4 18 0;
#X connect 0 5 20 0;
#X connect 1 0 0 0;
#X connect 2 0 0 0;
#X connect 3 0 2 0;
#X connect 3 0 1 0;
#X connect 4 0 5 0;
#X connect 5 0 6 0;
#X connect 5 0 7 0;
#X connect 10 0 11 0;
#X connect 11 0 9 0;
#X connect 12 0 13 0;
#X connect 13 0 22 0;
#X connect 14 0 15 0;
#X connect 15 0 23 0;
#X connect 16 0 17 0;
#X connect 17 0 24 0;
#X connect 18 0 19 0;
#X connect 19 0 25 0;
#X connect 20 0 21 0;
#X connect 21 0 26 0;
#X restore 64 385 pd Terminal Tedium IO;
#X obj 296 64 tedium_input 23;
#X obj 295 109 tedium_input 25;
#X obj 337 197 tedium_input 24;
#X obj 295 176 tedium_output 26;
#X obj 72 44 r cv1;
#X obj 546 59 ctlin 11;
#X obj 547 -4 ctlin 10;
#X obj 547 129 ctlin 21;
#X obj 547 191 ctlin 20;
#X obj 685 -4 ctlin 12;
#X obj 767 -5 ctlin 13;
#X obj 866 0 ctlin 15;
#X obj 1037 2 ctlin 29;
#X obj 1036 62 ctlin 28;
#X obj 1039 130 ctlin 27;
#X obj 1038 190 ctlin 26;
#X obj 636 90 ctlin 14;
#X obj 663 131 ctlin 16;
#X obj 773 124 ctlin 17;
#X obj 872 122 ctlin 18;
#X obj 980 126 ctlin 19;
#X obj 603 204 ctlin 22;
#X obj 719 199 ctlin 23;
#X obj 815 193 ctlin 24;
#X obj 925 191 ctlin 25;
#X msg 372 156 1;
#X obj 372 137 r initbang;
#X obj 131 41 r cv2;
#X obj 185 40 r cv3;
#X obj 70 185 r cv4;
#X obj 128 188 r cv5;
#X obj 187 186 r cv6;
#X text 181 23 envelope;
#X text 130 23 slew;
#N canvas 389 470 450 300 envelope 0;
#X obj 71 19 inlet;
#X obj 71 41 / 127;
#X obj 71 63 s envelopeLevel;
#X connect 0 0 1 0;
#X connect 1 0 2 0;
#X restore 183 106 pd envelope;
#X obj 653 492 *~;
#X obj 668 466 r envelopeLevel;
#N canvas 371 568 450 300 pitch 0;
#X obj 155 32 inlet;
#X obj 154 205 s~ pitch;
#X obj 155 128 line, f 5;
#X obj 155 63 mtof;
#X obj 198 62 r slew;
#X obj 175 97 pack;
#X obj 295 174 s frequency;
#X obj 153 165 sig~;
#X connect 0 0 3 0;
#X connect 2 0 6 0;
#X connect 2 0 7 0;
#X connect 3 0 5 0;
#X connect 4 0 5 1;
#X connect 5 0 2 0;
#X connect 7 0 1 0;
#X restore 71 121 pd pitch;
#X obj 130 108 s slew;
#X obj 851 519 metro 50;
#X obj 4 86 + 20;
#X obj 4 64 random 60;
#N canvas 0 22 866 374 scrubber 0;
#X obj 388 23 inlet;
#X obj 19 306 outlet;
#X obj 111 305 outlet;
#X obj 778 307 outlet;
#X obj 289 307 outlet;
#X obj 459 307 outlet;
#X obj 631 306 outlet;
#X obj 9 126 * 127;
#X floatatom 18 284 5 0 0 0 - - -, f 5;
#X obj 9 148 - 127;
#X obj 9 170 abs;
#X obj 8 82 clip 0 25;
#X obj 9 104 / 25;
#X floatatom 79 196 5 0 0 0 - - -, f 5;
#X obj 77 154 * 127;
#X obj 154 147 * 127;
#X floatatom 154 210 5 0 0 0 - - -, f 5;
#X obj 154 169 - 127;
#X obj 154 191 abs;
#X obj 154 104 - 26;
#X obj 112 219 +;
#X floatatom 113 284 5 0 0 0 - - -, f 5;
#X obj 112 241 - 127;
#X floatatom 254 198 5 0 0 0 - - -, f 5;
#X obj 252 156 * 127;
#X obj 329 149 * 127;
#X floatatom 329 212 5 0 0 0 - - -, f 5;
#X obj 329 171 - 127;
#X obj 329 193 abs;
#X obj 287 221 +;
#X floatatom 288 289 5 0 0 0 - - -, f 5;
#X obj 287 243 - 127;
#X floatatom 429 199 5 0 0 0 - - -, f 5;
#X obj 427 157 * 127;
#X obj 504 150 * 127;
#X floatatom 504 213 5 0 0 0 - - -, f 5;
#X obj 504 172 - 127;
#X obj 504 194 abs;
#X obj 462 222 +;
#X floatatom 460 286 5 0 0 0 - - -, f 5;
#X obj 462 244 - 127;
#X floatatom 596 199 5 0 0 0 - - -, f 5;
#X obj 594 157 * 127;
#X obj 671 150 * 127;
#X floatatom 671 213 5 0 0 0 - - -, f 5;
#X obj 671 172 - 127;
#X obj 671 194 abs;
#X obj 629 222 +;
#X floatatom 632 286 5 0 0 0 - - -, f 5;
#X obj 629 244 - 127;
#X obj 329 106 - 53;
#X obj 504 107 - 79;
#X obj 671 107 - 106;
#X floatatom 778 287 5 0 0 0 - - -, f 5;
#X obj 774 157 * 127;
#X obj 774 85 clip 106 127;
#X obj 775 108 - 106;
#X obj 775 131 / 21;
#X obj 594 85 clip 79 105;
#X obj 595 131 / 26;
#X obj 595 108 - 79;
#X obj 503 86 clip 79 105;
#X obj 670 86 clip 106 126;
#X obj 671 128 / 20;
#X obj 504 128 / 26;
#X obj 427 85 clip 53 78;
#X obj 428 131 / 25;
#X obj 328 85 clip 53 78;
#X obj 329 127 / 25;
#X obj 428 108 - 53;
#X obj 252 84 clip 26 52;
#X obj 253 107 - 26;
#X obj 253 130 / 26;
#X obj 153 83 clip 26 52;
#X obj 154 125 / 26;
#X obj 77 82 clip 1 25;
#X obj 78 105 - 1;
#X obj 78 128 / 24;
#X connect 0 0 11 0;
#X connect 0 0 73 0;
#X connect 0 0 70 0;
#X connect 0 0 67 0;
#X connect 0 0 65 0;
#X connect 0 0 61 0;
#X connect 0 0 58 0;
#X connect 0 0 62 0;
#X connect 0 0 55 0;
#X connect 0 0 75 0;
#X connect 7 0 9 0;
#X connect 8 0 1 0;
#X connect 9 0 10 0;
#X connect 10 0 8 0;
#X connect 11 0 12 0;
#X connect 12 0 7 0;
#X connect 13 0 20 0;
#X connect 14 0 13 0;
#X connect 15 0 17 0;
#X connect 16 0 20 1;
#X connect 17 0 18 0;
#X connect 18 0 16 0;
#X connect 19 0 74 0;
#X connect 20 0 22 0;
#X connect 21 0 2 0;
#X connect 22 0 21 0;
#X connect 23 0 29 0;
#X connect 24 0 23 0;
#X connect 25 0 27 0;
#X connect 26 0 29 1;
#X connect 27 0 28 0;
#X connect 28 0 26 0;
#X connect 29 0 31 0;
#X connect 30 0 4 0;
#X connect 31 0 30 0;
#X connect 32 0 38 0;
#X connect 33 0 32 0;
#X connect 34 0 36 0;
#X connect 35 0 38 1;
#X connect 36 0 37 0;
#X connect 37 0 35 0;
#X connect 38 0 40 0;
#X connect 39 0 5 0;
#X connect 40 0 39 0;
#X connect 41 0 47 0;
#X connect 42 0 41 0;
#X connect 43 0 45 0;
#X connect 44 0 47 1;
#X connect 45 0 46 0;
#X connect 46 0 44 0;
#X connect 47 0 49 0;
#X connect 48 0 6 0;
#X connect 49 0 48 0;
#X connect 50 0 68 0;
#X connect 51 0 64 0;
#X connect 52 0 63 0;
#X connect 53 0 3 0;
#X connect 54 0 53 0;
#X connect 55 0 56 0;
#X connect 56 0 57 0;
#X connect 57 0 54 0;
#X connect 58 0 60 0;
#X connect 59 0 42 0;
#X connect 60 0 59 0;
#X connect 61 0 51 0;
#X connect 62 0 52 0;
#X connect 63 0 43 0;
#X connect 64 0 34 0;
#X connect 65 0 69 0;
#X connect 66 0 33 0;
#X connect 67 0 50 0;
#X connect 68 0 25 0;
#X connect 69 0 66 0;
#X connect 70 0 71 0;
#X connect 71 0 72 0;
#X connect 72 0 24 0;
#X connect 73 0 19 0;
#X connect 74 0 15 0;
#X connect 75 0 76 0;
#X connect 76 0 77 0;
#X connect 77 0 14 0;
#X restore 693 111 pd scrubber;
#X connect 1 0 12 6;
#X connect 2 0 117 0;
#X connect 5 0 7 0;
#X connect 5 0 119 0;
#X connect 8 0 12 2;
#X connect 9 0 12 4;
#X connect 10 0 12 8;
#X connect 11 0 12 9;
#X connect 12 0 38 0;
#X connect 13 0 12 7;
#X connect 14 0 12 5;
#X connect 15 0 12 3;
#X connect 16 0 8 1;
#X connect 17 0 10 1;
#X connect 18 0 9 1;
#X connect 19 0 1 1;
#X connect 22 0 32 0;
#X connect 23 0 30 0;
#X connect 25 0 1 0;
#X connect 26 0 8 0;
#X connect 27 0 9 0;
#X connect 28 0 10 0;
#X connect 29 0 122 0;
#X connect 31 0 38 1;
#X connect 33 0 38 2;
#X connect 38 0 115 0;
#X connect 38 0 7 0;
#X connect 39 0 73 0;
#X connect 40 0 59 0;
#X connect 40 1 60 0;
#X connect 41 0 62 0;
#X connect 42 0 39 2;
#X connect 43 0 70 3;
#X connect 44 0 39 3;
#X connect 45 0 12 1;
#X connect 46 0 73 1;
#X connect 49 0 78 1;
#X connect 50 0 12 11;
#X connect 51 0 114 0;
#X connect 53 0 118 0;
#X connect 56 0 68 0;
#X connect 57 0 67 0;
#X connect 61 0 39 0;
#X connect 63 0 39 1;
#X connect 64 0 70 2;
#X connect 65 0 70 0;
#X connect 66 0 70 1;
#X connect 69 0 58 0;
#X connect 69 0 83 0;
#X connect 70 0 78 0;
#X connect 73 0 12 0;
#X connect 75 0 77 0;
#X connect 76 0 2 0;
#X connect 77 0 121 0;
#X connect 78 0 12 10;
#X connect 80 0 62 0;
#X connect 81 0 67 0;
#X connect 82 0 68 0;
#X connect 84 0 2 0;
#X connect 85 0 46 0;
#X connect 86 0 72 0;
#X connect 87 0 45 0;
#X connect 88 0 44 0;
#X connect 89 0 23 0;
#X connect 90 0 22 0;
#X connect 91 0 47 0;
#X connect 92 0 48 0;
#X connect 93 0 49 0;
#X connect 94 0 50 0;
#X connect 95 0 43 0;
#X connect 96 0 29 0;
#X connect 97 0 15 0;
#X connect 98 0 14 0;
#X connect 99 0 13 0;
#X connect 100 0 11 0;
#X connect 101 0 16 0;
#X connect 102 0 18 0;
#X connect 103 0 19 0;
#X connect 104 0 17 0;
#X connect 105 0 83 0;
#X connect 106 0 105 0;
#X connect 107 0 53 0;
#X connect 108 0 51 0;
#X connect 109 0 54 0;
#X connect 110 0 55 0;
#X connect 111 0 52 0;
#X connect 115 0 3 0;
#X connect 115 0 3 1;
#X connect 116 0 115 1;
#X connect 119 0 7 0;
#X connect 120 0 76 0;
#X connect 121 0 120 0;
